<mxfile host="app.diagrams.net" agent="Mozilla/5.0 (Windows NT 10.0; Win64; x64) AppleWebKit/537.36 (KHTML, like Gecko) Chrome/138.0.0.0 YaBrowser/25.8.0.0 Safari/537.36" version="28.2.5">
  <diagram name="Страница — 1" id="5G6y_OLNZlr9i4R45sGr">
    <mxGraphModel dx="1148" dy="643" grid="1" gridSize="10" guides="1" tooltips="1" connect="1" arrows="1" fold="1" page="1" pageScale="1" pageWidth="840" pageHeight="480" math="0" shadow="0">
      <root>
        <mxCell id="0" />
        <mxCell id="1" parent="0" />
        <mxCell id="67KpdpF4rEcVF_jd8kBB-9" style="edgeStyle=orthogonalEdgeStyle;rounded=0;orthogonalLoop=1;jettySize=auto;html=1;exitX=1;exitY=0.5;exitDx=0;exitDy=0;entryX=0;entryY=0.5;entryDx=0;entryDy=0;" edge="1" parent="1" source="67KpdpF4rEcVF_jd8kBB-1" target="67KpdpF4rEcVF_jd8kBB-2">
          <mxGeometry relative="1" as="geometry" />
        </mxCell>
        <mxCell id="67KpdpF4rEcVF_jd8kBB-11" style="edgeStyle=orthogonalEdgeStyle;rounded=0;orthogonalLoop=1;jettySize=auto;html=1;exitX=1;exitY=0.5;exitDx=0;exitDy=0;entryX=0;entryY=0.5;entryDx=0;entryDy=0;" edge="1" parent="1" source="67KpdpF4rEcVF_jd8kBB-1" target="67KpdpF4rEcVF_jd8kBB-10">
          <mxGeometry relative="1" as="geometry" />
        </mxCell>
        <mxCell id="67KpdpF4rEcVF_jd8kBB-1" value="DOM" style="rounded=0;whiteSpace=wrap;html=1;" vertex="1" parent="1">
          <mxGeometry x="40" y="40" width="120" height="40" as="geometry" />
        </mxCell>
        <mxCell id="67KpdpF4rEcVF_jd8kBB-6" style="edgeStyle=orthogonalEdgeStyle;rounded=0;orthogonalLoop=1;jettySize=auto;html=1;entryX=0;entryY=0.5;entryDx=0;entryDy=0;" edge="1" parent="1" source="67KpdpF4rEcVF_jd8kBB-2" target="67KpdpF4rEcVF_jd8kBB-3">
          <mxGeometry relative="1" as="geometry" />
        </mxCell>
        <mxCell id="67KpdpF4rEcVF_jd8kBB-7" style="edgeStyle=orthogonalEdgeStyle;rounded=0;orthogonalLoop=1;jettySize=auto;html=1;exitX=1;exitY=0.5;exitDx=0;exitDy=0;entryX=0;entryY=0.5;entryDx=0;entryDy=0;" edge="1" parent="1" source="67KpdpF4rEcVF_jd8kBB-2" target="67KpdpF4rEcVF_jd8kBB-4">
          <mxGeometry relative="1" as="geometry" />
        </mxCell>
        <mxCell id="67KpdpF4rEcVF_jd8kBB-8" style="edgeStyle=orthogonalEdgeStyle;rounded=0;orthogonalLoop=1;jettySize=auto;html=1;exitX=1;exitY=0.5;exitDx=0;exitDy=0;entryX=0;entryY=0.5;entryDx=0;entryDy=0;" edge="1" parent="1" source="67KpdpF4rEcVF_jd8kBB-2" target="67KpdpF4rEcVF_jd8kBB-5">
          <mxGeometry relative="1" as="geometry" />
        </mxCell>
        <mxCell id="67KpdpF4rEcVF_jd8kBB-2" value="html" style="rounded=0;whiteSpace=wrap;html=1;" vertex="1" parent="1">
          <mxGeometry x="200" y="40" width="120" height="40" as="geometry" />
        </mxCell>
        <mxCell id="67KpdpF4rEcVF_jd8kBB-3" value="meta" style="rounded=0;whiteSpace=wrap;html=1;" vertex="1" parent="1">
          <mxGeometry x="360" y="40" width="120" height="40" as="geometry" />
        </mxCell>
        <mxCell id="67KpdpF4rEcVF_jd8kBB-4" value="script" style="rounded=0;whiteSpace=wrap;html=1;" vertex="1" parent="1">
          <mxGeometry x="360" y="100" width="120" height="40" as="geometry" />
        </mxCell>
        <mxCell id="67KpdpF4rEcVF_jd8kBB-5" value="link" style="rounded=0;whiteSpace=wrap;html=1;" vertex="1" parent="1">
          <mxGeometry x="360" y="160" width="120" height="40" as="geometry" />
        </mxCell>
        <mxCell id="67KpdpF4rEcVF_jd8kBB-13" style="edgeStyle=orthogonalEdgeStyle;rounded=0;orthogonalLoop=1;jettySize=auto;html=1;exitX=1;exitY=0.5;exitDx=0;exitDy=0;entryX=0;entryY=0.5;entryDx=0;entryDy=0;" edge="1" parent="1" source="67KpdpF4rEcVF_jd8kBB-10" target="67KpdpF4rEcVF_jd8kBB-12">
          <mxGeometry relative="1" as="geometry" />
        </mxCell>
        <mxCell id="67KpdpF4rEcVF_jd8kBB-24" style="edgeStyle=orthogonalEdgeStyle;rounded=0;orthogonalLoop=1;jettySize=auto;html=1;exitX=1;exitY=0.5;exitDx=0;exitDy=0;entryX=0;entryY=0.5;entryDx=0;entryDy=0;" edge="1" parent="1" source="67KpdpF4rEcVF_jd8kBB-10" target="67KpdpF4rEcVF_jd8kBB-23">
          <mxGeometry relative="1" as="geometry" />
        </mxCell>
        <mxCell id="67KpdpF4rEcVF_jd8kBB-10" value="body" style="rounded=0;whiteSpace=wrap;html=1;" vertex="1" parent="1">
          <mxGeometry x="200" y="240" width="120" height="40" as="geometry" />
        </mxCell>
        <mxCell id="67KpdpF4rEcVF_jd8kBB-15" style="edgeStyle=orthogonalEdgeStyle;rounded=0;orthogonalLoop=1;jettySize=auto;html=1;entryX=0;entryY=0.5;entryDx=0;entryDy=0;" edge="1" parent="1" source="67KpdpF4rEcVF_jd8kBB-12" target="67KpdpF4rEcVF_jd8kBB-14">
          <mxGeometry relative="1" as="geometry" />
        </mxCell>
        <mxCell id="67KpdpF4rEcVF_jd8kBB-12" value="div class=&quot;main&quot;" style="rounded=0;whiteSpace=wrap;html=1;" vertex="1" parent="1">
          <mxGeometry x="360" y="240" width="120" height="40" as="geometry" />
        </mxCell>
        <mxCell id="67KpdpF4rEcVF_jd8kBB-20" style="edgeStyle=orthogonalEdgeStyle;rounded=0;orthogonalLoop=1;jettySize=auto;html=1;exitX=1;exitY=0.5;exitDx=0;exitDy=0;entryX=0;entryY=0.5;entryDx=0;entryDy=0;" edge="1" parent="1" source="67KpdpF4rEcVF_jd8kBB-14" target="67KpdpF4rEcVF_jd8kBB-16">
          <mxGeometry relative="1" as="geometry" />
        </mxCell>
        <mxCell id="67KpdpF4rEcVF_jd8kBB-21" style="edgeStyle=orthogonalEdgeStyle;rounded=0;orthogonalLoop=1;jettySize=auto;html=1;exitX=1;exitY=0.5;exitDx=0;exitDy=0;entryX=0;entryY=0.5;entryDx=0;entryDy=0;" edge="1" parent="1" source="67KpdpF4rEcVF_jd8kBB-14" target="67KpdpF4rEcVF_jd8kBB-17">
          <mxGeometry relative="1" as="geometry" />
        </mxCell>
        <mxCell id="67KpdpF4rEcVF_jd8kBB-22" style="edgeStyle=orthogonalEdgeStyle;rounded=0;orthogonalLoop=1;jettySize=auto;html=1;exitX=1;exitY=0.5;exitDx=0;exitDy=0;entryX=0;entryY=0.5;entryDx=0;entryDy=0;" edge="1" parent="1" source="67KpdpF4rEcVF_jd8kBB-14" target="67KpdpF4rEcVF_jd8kBB-18">
          <mxGeometry relative="1" as="geometry" />
        </mxCell>
        <mxCell id="67KpdpF4rEcVF_jd8kBB-14" value="svg" style="rounded=0;whiteSpace=wrap;html=1;" vertex="1" parent="1">
          <mxGeometry x="520" y="240" width="120" height="40" as="geometry" />
        </mxCell>
        <mxCell id="67KpdpF4rEcVF_jd8kBB-16" value="path class=&quot;tile&quot;" style="rounded=0;whiteSpace=wrap;html=1;" vertex="1" parent="1">
          <mxGeometry x="680" y="240" width="120" height="40" as="geometry" />
        </mxCell>
        <mxCell id="67KpdpF4rEcVF_jd8kBB-17" value="path class=&quot;tile&quot;" style="rounded=0;whiteSpace=wrap;html=1;" vertex="1" parent="1">
          <mxGeometry x="680" y="300" width="120" height="40" as="geometry" />
        </mxCell>
        <mxCell id="67KpdpF4rEcVF_jd8kBB-18" value="path class=&quot;tile&quot;" style="rounded=0;whiteSpace=wrap;html=1;" vertex="1" parent="1">
          <mxGeometry x="680" y="380" width="120" height="40" as="geometry" />
        </mxCell>
        <mxCell id="67KpdpF4rEcVF_jd8kBB-19" value="..." style="text;html=1;align=center;verticalAlign=middle;whiteSpace=wrap;rounded=0;" vertex="1" parent="1">
          <mxGeometry x="680" y="340" width="120" height="40" as="geometry" />
        </mxCell>
        <mxCell id="67KpdpF4rEcVF_jd8kBB-23" value="div class=&quot;message&quot;&lt;div&gt;(динамическое)&lt;/div&gt;" style="rounded=0;whiteSpace=wrap;html=1;" vertex="1" parent="1">
          <mxGeometry x="360" y="320" width="120" height="40" as="geometry" />
        </mxCell>
      </root>
    </mxGraphModel>
  </diagram>
</mxfile>
